<svg width="116" height="38" viewBox="0 0 116 38" fill="none" xmlns="http://www.w3.org/2000/svg">
<circle cx="17.5" cy="17.5" r="14.5" stroke="#2E2E2E" stroke-width="6"/>
<path d="M24 20.5L18.5 25L26 34H36L24 20.5Z" fill="#249D55"/>
<path d="M60.1242 7.64039V29.0004H55.3642V26.2804C54.5642 27.2404 53.5642 27.9871 52.3642 28.5204C51.1642 29.0271 49.8708 29.2804 48.4842 29.2804C45.6308 29.2804 43.3775 28.4937 41.7242 26.9204C40.0975 25.3204 39.2842 22.9604 39.2842 19.8404V7.64039H44.2842V19.1604C44.2842 21.0804 44.7108 22.5204 45.5642 23.4804C46.4442 24.4137 47.6842 24.8804 49.2842 24.8804C51.0708 24.8804 52.4842 24.3337 53.5242 23.2404C54.5908 22.1204 55.1242 20.5204 55.1242 18.4404V7.64039H60.1242Z" fill="#2E2E2E"/>
<path d="M87.8707 7.64039V25.7604C87.8707 33.2804 84.0307 37.0404 76.3507 37.0404C74.2974 37.0404 72.3507 36.7737 70.5107 36.2404C68.6707 35.7337 67.1507 34.9871 65.9507 34.0004L68.1907 30.2404C69.1241 31.0137 70.2974 31.6271 71.7107 32.0804C73.1507 32.5604 74.6041 32.8004 76.0707 32.8004C78.4174 32.8004 80.1374 32.2671 81.2307 31.2004C82.3241 30.1337 82.8707 28.5071 82.8707 26.3204V25.2004C82.0174 26.1337 80.9774 26.8404 79.7507 27.3204C78.5241 27.8004 77.1774 28.0404 75.7107 28.0404C73.6841 28.0404 71.8441 27.6137 70.1907 26.7604C68.5641 25.8804 67.2707 24.6537 66.3107 23.0804C65.3774 21.5071 64.9107 19.7071 64.9107 17.6804C64.9107 15.6537 65.3774 13.8671 66.3107 12.3204C67.2707 10.7471 68.5641 9.53372 70.1907 8.68039C71.8441 7.82706 73.6841 7.40039 75.7107 7.40039C77.2574 7.40039 78.6574 7.65372 79.9107 8.16039C81.1907 8.66706 82.2574 9.44039 83.1107 10.4804V7.64039H87.8707ZM76.4707 23.8004C78.3641 23.8004 79.9107 23.2404 81.1107 22.1204C82.3374 20.9737 82.9507 19.4937 82.9507 17.6804C82.9507 15.8937 82.3374 14.4404 81.1107 13.3204C79.9107 12.2004 78.3641 11.6404 76.4707 11.6404C74.5507 11.6404 72.9774 12.2004 71.7507 13.3204C70.5507 14.4404 69.9507 15.8937 69.9507 17.6804C69.9507 19.4937 70.5507 20.9737 71.7507 22.1204C72.9774 23.2404 74.5507 23.8004 76.4707 23.8004Z" fill="#2E2E2E"/>
<path d="M104.044 29.2804C101.884 29.2804 99.9375 28.8137 98.2042 27.8804C96.4708 26.9471 95.1108 25.6537 94.1242 24.0004C93.1642 22.3204 92.6842 20.4271 92.6842 18.3204C92.6842 16.2137 93.1642 14.3337 94.1242 12.6804C95.1108 11.0271 96.4708 9.73372 98.2042 8.80039C99.9375 7.86706 101.884 7.40039 104.044 7.40039C106.231 7.40039 108.191 7.86706 109.924 8.80039C111.658 9.73372 113.004 11.0271 113.964 12.6804C114.951 14.3337 115.444 16.2137 115.444 18.3204C115.444 20.4271 114.951 22.3204 113.964 24.0004C113.004 25.6537 111.658 26.9471 109.924 27.8804C108.191 28.8137 106.231 29.2804 104.044 29.2804ZM104.044 25.0004C105.884 25.0004 107.404 24.3871 108.604 23.1604C109.804 21.9337 110.404 20.3204 110.404 18.3204C110.404 16.3204 109.804 14.7071 108.604 13.4804C107.404 12.2537 105.884 11.6404 104.044 11.6404C102.204 11.6404 100.684 12.2537 99.4842 13.4804C98.3108 14.7071 97.7242 16.3204 97.7242 18.3204C97.7242 20.3204 98.3108 21.9337 99.4842 23.1604C100.684 24.3871 102.204 25.0004 104.044 25.0004Z" fill="#2E2E2E"/>
</svg>
